<svg width="369" height="92" viewBox="0 0 369 92" 
fill="none" xmlns="http://www.w3.org/2000/svg">
 <defs>
    <style type="text/css"><![CDATA[
      #line {
        fill:red;
      }
    ]]></style>
  </defs>
<path id="line" d="M21.96 66.4C20.3067 66.4 18.84 65.6533 17.56 64.16C16.3333 62.6667 15.5867 60.32 15.32 57.12C15.2667 56.7467 15.24 56.3733 15.24 56C15.24 55.6267 15.24 55.2533 15.24 54.88C15.24 52 15.5333 48.88 16.12 45.52C16.7067 42.16 17.3467 38.9067 18.04 35.76C18.1467 35.2267 18.36 34.1867 18.68 32.64C19.0533 31.04 19.4267 29.1467 19.8 26.96C20.1733 24.7733 20.4933 22.48 20.76 20.08C21.0267 17.6267 21.16 15.3333 21.16 13.2C21.16 10.5333 20.8667 8.29333 20.28 6.48C19.6933 4.66666 18.6 3.76 17 3.76C15.2933 3.76 13.72 4.48 12.28 5.92C10.84 7.30667 9.53333 9.14667 8.36 11.44C7.24 13.68 6.25333 16.1333 5.4 18.8C4.6 21.4667 3.98667 24.1067 3.56 26.72C3.13333 29.28 2.92 31.5467 2.92 33.52C2.92 34.8533 3.02667 36 3.24 36.96C3.45333 37.8667 3.8 38.4533 4.28 38.72C4.65333 38.9333 4.84 39.2 4.84 39.52C4.84 40.16 4.49333 40.48 3.8 40.48C3.42667 40.48 3.08 40.32 2.76 40C2.06667 39.2 1.48 37.8667 1 36C0.52 34.1333 0.28 31.9733 0.28 29.52C0.28 28.0267 0.386667 26.48 0.6 24.88C0.813333 23.28 1.13333 21.6533 1.56 20C2.14667 17.8133 2.97333 15.6 4.04 13.36C5.10667 11.0667 6.44 8.96 8.04 7.04C9.64 5.06666 11.5067 3.49333 13.64 2.32C15.8267 1.14666 18.28 0.559999 21 0.559999C22.92 0.559999 24.4133 1.06667 25.48 2.08C26.5467 3.04 27.2933 4.34667 27.72 6C28.2 7.65333 28.44 9.49333 28.44 11.52C28.44 13.92 28.2 16.4267 27.72 19.04C27.2933 21.6 26.7867 23.9733 26.2 26.16C25.6667 28.2933 25.24 29.9733 24.92 31.2C24.3333 33.3867 23.72 35.7867 23.08 38.4C22.44 41.0133 21.9067 43.6533 21.48 46.32C21.1067 48.9333 20.92 51.44 20.92 53.84V55.12C21.0267 57.4667 21.4267 59.1733 22.12 60.24C22.8667 61.2533 23.8 61.76 24.92 61.76C26.8933 61.76 28.76 61.0133 30.52 59.52C32.28 57.9733 33.9067 55.92 35.4 53.36C36.9467 50.8 38.3333 47.92 39.56 44.72C40.7867 41.52 41.8533 38.2133 42.76 34.8C42.3867 33.8933 42.0667 32.5333 41.8 30.72C41.5333 28.8533 41.4 26.9067 41.4 24.88C41.4 22.5867 41.6133 20.4267 42.04 18.4C42.52 16.3733 43.2933 14.96 44.36 14.16C44.68 13.9467 45.0533 13.84 45.48 13.84C46.0667 13.84 46.68 14.1067 47.32 14.64C47.96 15.1733 48.28 16.2133 48.28 17.76V18.08C48.28 19.84 48.12 21.8133 47.8 24C47.48 26.1867 47.0267 28.5333 46.44 31.04C46.6 32.8 46.8667 34.9333 47.24 37.44C47.6133 39.9467 48.12 42.5333 48.76 45.2C49.4533 47.8667 50.28 50.3733 51.24 52.72C52.2533 55.0133 53.4533 56.88 54.84 58.32C56.28 59.76 57.9067 60.48 59.72 60.48C61.9067 60.48 63.72 59.8133 65.16 58.48C66.6 57.0933 67.7467 55.3333 68.6 53.2C69.5067 51.0667 70.1733 48.8267 70.6 46.48C71.08 44.1333 71.4 41.9467 71.56 39.92C71.72 37.8933 71.8 36.32 71.8 35.2C71.8 30.1333 71.32 25.5733 70.36 21.52C69.4533 17.4133 68.0667 14.1867 66.2 11.84C65.24 11.68 64.2533 11.36 63.24 10.88C62.2267 10.3467 61.3733 9.78666 60.68 9.2C60.04 8.56 59.72 8.02666 59.72 7.6C59.72 6.90667 60.5467 6.56 62.2 6.56C62.4133 6.56 62.6533 6.56 62.92 6.56C63.1867 6.56 63.48 6.58666 63.8 6.64C67.1067 6.96 69.9067 8.66666 72.2 11.76C72.9467 11.76 73.72 11.76 74.52 11.76C75.3733 11.7067 76.12 11.6 76.76 11.44H77C77.5333 11.44 77.8 11.68 77.8 12.16C77.8 12.5333 77.5867 12.8 77.16 12.96C76.2 13.28 75.2667 13.44 74.36 13.44C74.1467 13.44 73.96 13.44 73.8 13.44C73.64 13.44 73.4533 13.4133 73.24 13.36C74.52 15.6 75.5333 18.4533 76.28 21.92C77.0267 25.3333 77.4 29.4133 77.4 34.16C77.4 36.0267 77.1867 38.2133 76.76 40.72C76.3867 43.1733 75.7733 45.7067 74.92 48.32C74.0667 50.88 72.9467 53.2533 71.56 55.44C70.2267 57.6267 68.6 59.4133 66.68 60.8C64.8133 62.1333 62.6267 62.8 60.12 62.8C57.6133 62.8 55.4267 62.1333 53.56 60.8C51.6933 59.4667 50.12 57.7067 48.84 55.52C47.6133 53.28 46.5733 50.8533 45.72 48.24C44.92 45.5733 44.3067 42.9333 43.88 40.32C42.8133 43.6267 41.5333 46.8267 40.04 49.92C38.6 53.0133 36.9467 55.8133 35.08 58.32C33.2667 60.7733 31.2667 62.72 29.08 64.16C26.8933 65.6533 24.52 66.4 21.96 66.4ZM92.0356 21.52C91.0223 21.52 90.1156 21.1467 89.3156 20.4C88.569 19.6533 88.1956 18.7467 88.1956 17.68C88.1956 16.6133 88.569 15.7067 89.3156 14.96C90.1156 14.2133 91.0223 13.84 92.0356 13.84C93.1023 13.84 94.009 14.2133 94.7556 14.96C95.5023 15.7067 95.8756 16.6133 95.8756 17.68C95.8756 18.7467 95.5023 19.6533 94.7556 20.4C94.009 21.1467 93.1023 21.52 92.0356 21.52ZM92.9956 62.8C91.0756 62.8 89.5023 62.1333 88.2756 60.8C87.1023 59.4667 86.1956 57.84 85.5556 55.92C84.969 53.9467 84.5423 52.0533 84.2756 50.24C84.1156 49.0133 84.009 47.8667 83.9556 46.8C83.9556 45.68 83.9556 44.5867 83.9556 43.52C84.0623 40.48 84.329 37.68 84.7556 35.12C85.2356 32.56 85.7156 30.8267 86.1956 29.92C86.5156 29.28 87.0223 28.6933 87.7156 28.16C88.4623 27.5733 89.449 27.28 90.6756 27.28C91.369 27.28 92.0623 27.36 92.7556 27.52C92.2223 29.3867 91.5823 32 90.8356 35.36C90.089 38.6667 89.7156 42.32 89.7156 46.32C89.7156 48.3467 89.849 50.4 90.1156 52.48C90.3823 54.56 90.889 56.32 91.6356 57.76C92.4356 59.1467 93.529 59.84 94.9156 59.84C96.0356 59.84 97.0223 59.4133 97.8756 58.56C98.9423 57.5467 99.7423 56.1867 100.276 54.48C100.862 52.7733 101.369 51.04 101.796 49.28C101.956 48.5333 102.222 48.16 102.596 48.16C102.969 48.16 103.156 48.48 103.156 49.12C103.156 49.28 103.129 49.4667 103.076 49.68C103.076 49.8933 103.049 50.1333 102.996 50.4C102.676 52.2133 102.116 54.08 101.316 56C100.569 57.92 99.529 59.5467 98.1956 60.88C96.8623 62.16 95.129 62.8 92.9956 62.8ZM109.707 62.32C107.787 62.32 106.267 61.7067 105.147 60.48C104.027 59.2533 103.2 57.7867 102.667 56.08C102.134 54.32 101.814 52.6933 101.707 51.2C101.6 49.76 101.52 48.24 101.467 46.64C101.414 44.9867 101.387 43.2533 101.387 41.44C101.387 38.1333 101.467 34.72 101.627 31.2C101.84 27.68 102.134 24.2667 102.507 20.96C102.934 17.6 103.44 14.6133 104.027 12C104.347 10.6667 104.854 9.14666 105.547 7.44C106.24 5.73333 107.147 4.26666 108.267 3.04C109.387 1.76 110.72 1.12 112.267 1.12C115.414 1.12 116.987 3.49333 116.987 8.24C116.987 10.1067 116.667 12.8 116.027 16.32C115.44 19.7867 114.347 23.68 112.747 28C111.947 30.24 110.987 32.5067 109.867 34.8C108.8 37.04 107.734 39.0933 106.667 40.96C106.614 41.3867 106.587 41.84 106.587 42.32C106.587 42.7467 106.587 43.1733 106.587 43.6C106.587 45.4133 106.64 47.2533 106.747 49.12C106.907 50.9867 107.147 52.72 107.467 54.32C107.84 55.8667 108.347 57.12 108.987 58.08C109.627 59.04 110.454 59.52 111.467 59.52C112.64 59.52 113.574 59.04 114.267 58.08C115.014 57.0667 115.574 56.1067 115.947 55.2C116.16 54.72 116.347 54.1867 116.507 53.6C116.72 53.0133 116.934 52.4 117.147 51.76C117.36 51.1733 117.654 50.88 118.027 50.88C118.294 50.88 118.427 51.1733 118.427 51.76V51.92C118.427 52.2933 118.347 52.7733 118.187 53.36C118.08 53.9467 117.92 54.5333 117.707 55.12C117.067 57.0933 116.134 58.8 114.907 60.24C113.68 61.6267 111.947 62.32 109.707 62.32ZM106.747 37.52C108.134 34.6933 109.414 31.7067 110.587 28.56C111.76 25.36 112.694 22.2133 113.387 19.12C114.134 16.0267 114.507 13.2267 114.507 10.72C114.507 9.17333 114.374 7.89333 114.107 6.88C113.894 5.86667 113.467 5.36 112.827 5.36C112.24 5.36 111.68 5.97333 111.147 7.2C110.667 8.37333 110.214 9.94666 109.787 11.92C109.36 13.8933 108.96 16.0267 108.587 18.32C108.267 20.56 107.974 22.8 107.707 25.04C107.494 27.2267 107.307 29.1733 107.147 30.88C107.04 32.5333 106.96 33.7333 106.907 34.48C106.907 34.8 106.88 35.2267 106.827 35.76C106.827 36.24 106.8 36.8267 106.747 37.52ZM126.443 62.8C124.629 62.8 123.136 62.24 121.963 61.12C120.843 60 119.963 58.5867 119.323 56.88C118.683 55.12 118.203 53.3333 117.883 51.52C117.616 49.7067 117.456 48.1333 117.403 46.8C117.349 45.8933 117.323 45.0667 117.323 44.32C117.323 43.5733 117.323 42.88 117.323 42.24V42.16C117.323 39.3867 117.403 36.5333 117.563 33.6C117.723 30.6667 117.936 27.84 118.202 25.12C118.469 22.3467 118.763 19.84 119.083 17.6C119.403 15.3067 119.723 13.44 120.043 12C120.363 10.6667 120.869 9.14666 121.563 7.44C122.256 5.73333 123.163 4.26666 124.283 3.04C125.403 1.76 126.736 1.12 128.283 1.12C130.149 1.12 131.429 1.84 132.123 3.28C132.816 4.66667 133.163 6.4 133.163 8.48C133.163 10.24 132.976 12.1333 132.603 14.16C132.283 16.1333 131.856 18.0533 131.323 19.92C130.789 21.7867 130.283 23.44 129.803 24.88C129.376 26.32 129.029 27.36 128.763 28C127.909 30.24 126.923 32.5067 125.803 34.8C124.736 37.0933 123.669 39.1733 122.603 41.04C122.603 41.5733 122.576 42.16 122.523 42.8C122.523 43.3867 122.523 44.0533 122.523 44.8C122.523 46.3467 122.576 48 122.683 49.76C122.789 51.52 123.029 53.1733 123.403 54.72C123.776 56.2133 124.309 57.44 125.003 58.4C125.696 59.36 126.603 59.84 127.723 59.84C128.843 59.84 129.829 59.4133 130.683 58.56C131.749 57.5467 132.549 56.1867 133.083 54.48C133.669 52.7733 134.176 51.04 134.603 49.28C134.763 48.5333 135.029 48.16 135.403 48.16C135.669 48.16 135.803 48.48 135.803 49.12C135.803 49.28 135.776 49.4667 135.723 49.68C135.723 49.8933 135.696 50.1333 135.643 50.4C135.323 52.2133 134.816 54.08 134.123 56C133.483 57.92 132.549 59.5467 131.323 60.88C130.149 62.16 128.523 62.8 126.443 62.8ZM122.763 37.68C124.149 34.8533 125.429 31.8667 126.603 28.72C127.776 25.52 128.709 22.3733 129.403 19.28C130.149 16.1333 130.523 13.28 130.523 10.72C130.523 9.17333 130.389 7.89333 130.123 6.88C129.909 5.86667 129.483 5.36 128.843 5.36C128.203 5.36 127.589 6.05333 127.003 7.44C126.469 8.82666 125.963 10.64 125.483 12.88C125.056 15.12 124.683 17.5467 124.363 20.16C124.043 22.72 123.749 25.2267 123.483 27.68C123.269 30.08 123.083 32.1867 122.923 34C122.816 35.8133 122.763 37.04 122.763 37.68ZM141.879 21.52C140.866 21.52 139.959 21.1467 139.159 20.4C138.413 19.6533 138.039 18.7467 138.039 17.68C138.039 16.6133 138.413 15.7067 139.159 14.96C139.959 14.2133 140.866 13.84 141.879 13.84C142.946 13.84 143.853 14.2133 144.599 14.96C145.346 15.7067 145.719 16.6133 145.719 17.68C145.719 18.7467 145.346 19.6533 144.599 20.4C143.853 21.1467 142.946 21.52 141.879 21.52ZM141.319 62.4C139.399 62.4 137.879 61.6 136.759 60C135.693 58.3467 134.919 56.2667 134.439 53.76C134.013 51.2 133.799 48.5333 133.799 45.76C133.799 43.4667 133.906 41.2533 134.119 39.12C134.386 36.9333 134.679 35.04 134.999 33.44C135.373 31.7867 135.719 30.6133 136.039 29.92C136.359 29.28 136.866 28.6933 137.559 28.16C138.306 27.5733 139.293 27.28 140.519 27.28C141.213 27.28 141.906 27.36 142.599 27.52C142.066 29.3867 141.426 31.9733 140.679 35.28C139.933 38.5867 139.559 42.24 139.559 46.24C139.559 47.6267 139.586 49.12 139.639 50.72C139.693 52.2667 139.826 53.7333 140.039 55.12C140.253 56.4533 140.573 57.5467 140.999 58.4C141.479 59.2533 142.093 59.68 142.839 59.68H142.919C143.346 59.68 143.799 59.4667 144.279 59.04C144.813 58.6133 145.373 57.8133 145.959 56.64C146.759 55.0933 147.506 53.0933 148.199 50.64C148.306 50.16 148.519 49.92 148.839 49.92C149.106 49.92 149.239 50.24 149.239 50.88V51.2C149.133 52.5867 148.759 54.16 148.119 55.92C147.479 57.68 146.573 59.2 145.399 60.48C144.279 61.76 142.919 62.4 141.319 62.4ZM170.908 62.4C169.254 62.4 167.921 61.8933 166.908 60.88C165.894 59.8133 165.094 58.48 164.508 56.88C163.974 55.2267 163.601 53.5733 163.388 51.92C163.174 50.2133 163.068 48.72 163.068 47.44C162.428 49.84 161.601 52.1867 160.588 54.48C159.628 56.7733 158.561 58.6667 157.388 60.16C156.214 61.6 154.934 62.32 153.548 62.32H153.468C152.188 62.32 151.121 61.7333 150.268 60.56C149.414 59.3333 148.774 57.7333 148.348 55.76C147.921 53.7867 147.708 51.6533 147.708 49.36V48.56C147.708 46.4267 147.894 44.08 148.268 41.52C148.641 38.9067 149.308 36.4267 150.268 34.08C151.228 31.7333 152.534 29.8133 154.188 28.32C155.894 26.7733 158.054 26 160.668 26C161.681 26 162.588 26.24 163.388 26.72C164.241 27.1467 164.854 27.7867 165.228 28.64C165.601 28.2133 166.108 27.8667 166.747 27.6C167.388 27.3333 168.161 27.2 169.068 27.2C169.388 27.2 169.734 27.2267 170.108 27.28C170.534 27.3333 170.961 27.4133 171.388 27.52C171.068 28.7467 170.694 30.4267 170.268 32.56C169.841 34.6933 169.468 37.04 169.148 39.6C168.881 42.1067 168.748 44.56 168.748 46.96V47.28C168.748 48.2933 168.801 49.4933 168.908 50.88C169.014 52.2667 169.201 53.6267 169.468 54.96C169.734 56.2933 170.108 57.4133 170.588 58.32C171.068 59.2267 171.681 59.68 172.428 59.68H172.508C172.934 59.68 173.388 59.4667 173.868 59.04C174.401 58.6133 174.961 57.8133 175.548 56.64C176.348 55.0933 177.094 53.0933 177.788 50.64C177.894 50.16 178.108 49.92 178.428 49.92C178.694 49.92 178.828 50.24 178.828 50.88V51.2C178.721 52.5867 178.348 54.16 177.708 55.92C177.068 57.68 176.161 59.2 174.988 60.48C173.868 61.76 172.508 62.4 170.908 62.4ZM156.268 55.76C157.121 55.76 157.894 55.1467 158.588 53.92C159.334 52.6933 160.001 51.2 160.588 49.44C161.174 47.68 161.681 45.9733 162.108 44.32C162.748 41.8667 163.174 39.3867 163.388 36.88C163.601 34.32 164.054 31.8133 164.748 29.36C164.108 28.6667 163.388 28.32 162.588 28.32C161.414 28.32 160.214 28.9067 158.988 30.08C157.761 31.2533 156.801 32.5867 156.108 34.08C155.254 35.9467 154.614 38.1333 154.188 40.64C153.814 43.1467 153.628 45.5467 153.628 47.84C153.628 48.4267 153.628 49.0133 153.628 49.6C153.681 50.1867 153.734 50.7467 153.788 51.28C153.894 52.88 154.188 54.0267 154.668 54.72C155.201 55.4133 155.734 55.76 156.268 55.76ZM179.637 62.64C178.197 62.64 177.477 61.68 177.477 59.76C177.477 59.44 177.477 59.0933 177.477 58.72C177.53 58.3467 177.584 57.9467 177.637 57.52C177.797 56.6133 177.93 55.3333 178.037 53.68C178.144 51.9733 178.224 50.08 178.277 48C178.384 45.8667 178.437 43.76 178.437 41.68C178.437 39.3333 178.357 37.1467 178.197 35.12C178.09 33.04 177.85 31.4133 177.477 30.24C178.01 30.1333 178.597 29.84 179.237 29.36C179.877 28.88 180.57 28.56 181.317 28.4C181.477 28.3467 181.69 28.32 181.957 28.32C182.864 28.32 183.424 28.8 183.637 29.76C183.904 30.72 184.037 31.8933 184.037 33.28C184.037 34.24 184.01 35.3867 183.957 36.72C183.957 38 183.904 39.12 183.797 40.08C184.384 38.3733 185.024 36.9067 185.717 35.68C186.41 34.4 187.157 33.1733 187.957 32C189.077 30.2933 190.224 28.96 191.397 28C192.624 27.04 193.77 26.56 194.837 26.56C196.117 26.56 196.944 26.96 197.317 27.76C197.744 28.5067 197.957 29.44 197.957 30.56C197.957 31.3067 197.904 32.1067 197.797 32.96C197.744 33.76 197.69 34.56 197.637 35.36L197.157 42.48L197.957 40.08C198.544 38.3733 199.184 36.9067 199.877 35.68C200.57 34.4 201.317 33.1733 202.117 32C203.237 30.2933 204.384 28.96 205.557 28C206.784 27.04 207.93 26.56 208.997 26.56C210.49 26.56 211.45 27.0667 211.877 28.08C212.304 29.04 212.517 30.24 212.517 31.68C212.517 32.2667 212.49 32.88 212.437 33.52C212.437 34.1067 212.41 34.72 212.357 35.36C212.304 36.1067 212.197 37.6267 212.037 39.92C211.877 42.16 211.744 44.5867 211.637 47.2C211.637 47.4133 211.61 47.84 211.557 48.48C211.557 49.12 211.557 49.84 211.557 50.64C211.557 51.8667 211.61 53.1733 211.717 54.56C211.877 55.8933 212.144 57.04 212.517 58C212.944 58.96 213.53 59.44 214.277 59.44C215.29 59.44 216.144 58.96 216.837 58C217.53 56.9867 218.09 55.8667 218.517 54.64C218.997 53.4133 219.317 52.4533 219.477 51.76C219.69 51.12 219.957 50.8 220.277 50.8C220.597 50.8 220.757 51.12 220.757 51.76V51.92C220.757 52.2933 220.677 52.7733 220.517 53.36C220.41 53.9467 220.25 54.5333 220.037 55.12C219.397 57.0933 218.49 58.8267 217.317 60.32C216.144 61.76 214.437 62.48 212.197 62.48C210.384 62.48 209.024 61.92 208.117 60.8C207.264 59.6267 206.677 58.24 206.357 56.64C206.09 55.04 205.957 53.52 205.957 52.08V50.64C206.064 48.2933 206.144 46.2667 206.197 44.56C206.25 42.8 206.304 41.0133 206.357 39.2C206.357 38.9333 206.357 38.6133 206.357 38.24C206.41 37.8667 206.437 37.44 206.437 36.96C206.437 35.9467 206.357 34.96 206.197 34C206.037 33.04 205.664 32.56 205.077 32.56C204.65 32.56 203.957 33.1467 202.997 34.32C202.144 35.4933 201.264 37.12 200.357 39.2C199.504 41.28 198.784 43.6533 198.197 46.32C197.61 48.9867 197.317 51.76 197.317 54.64C197.317 55.6533 197.344 56.6667 197.397 57.68C197.504 58.64 197.664 59.6267 197.877 60.64C197.77 60.6933 197.557 60.7733 197.237 60.88C196.97 60.9867 196.624 61.04 196.197 61.04C195.61 61.04 194.997 60.8533 194.357 60.48C193.717 60.1067 193.184 59.3333 192.757 58.16C192.384 57.0933 192.117 55.9733 191.957 54.8C191.85 53.5733 191.797 52.32 191.797 51.04C191.797 49.1733 191.877 47.28 192.037 45.36C192.197 43.44 192.33 41.5467 192.437 39.68V38.48C192.437 37.7867 192.41 37.0133 192.357 36.16C192.304 35.2533 192.144 34.48 191.877 33.84C191.664 33.1467 191.317 32.8 190.837 32.8C190.25 32.8 189.584 33.3067 188.837 34.32C187.93 35.4933 186.997 37.2267 186.037 39.52C185.077 41.76 184.277 44.32 183.637 47.2C182.997 50.0267 182.677 52.96 182.677 56C182.677 57.8133 182.837 59.6533 183.157 61.52C182.57 61.84 181.957 62.1067 181.317 62.32C180.73 62.5333 180.17 62.64 179.637 62.64ZM244.021 66.24C243.007 66.24 242.074 65.8667 241.221 65.12C240.421 64.4267 239.727 63.5733 239.141 62.56C238.607 61.5467 238.207 60.56 237.941 59.6C237.407 57.4667 237.007 55.0133 236.741 52.24C236.527 49.4667 236.421 46.5333 236.421 43.44C236.421 40.08 236.527 36.64 236.741 33.12C237.007 29.6 237.354 26.2133 237.781 22.96C238.207 19.6533 238.687 16.6667 239.221 14C239.807 11.3333 240.394 9.14666 240.981 7.44C241.034 7.28 241.141 7.2 241.301 7.2C241.514 7.14666 241.701 7.12 241.861 7.12C243.247 7.12 244.314 7.33333 245.061 7.76C245.807 8.18666 246.394 8.96 246.821 10.08C246.661 10.7733 246.367 12.0533 245.941 13.92C245.567 15.7333 245.114 17.9467 244.581 20.56C244.101 23.1733 243.621 26.0267 243.141 29.12C242.661 32.16 242.234 35.2533 241.861 38.4C241.541 41.5467 241.327 44.5867 241.221 47.52C241.221 48.0533 241.194 48.6133 241.141 49.2C241.141 49.7867 241.141 50.4 241.141 51.04C241.141 52.8533 241.221 54.6933 241.381 56.56C241.594 58.3733 241.967 59.8933 242.501 61.12C243.034 62.3467 243.834 62.96 244.901 62.96C245.434 62.96 245.914 62.8 246.341 62.48C246.767 62.16 247.061 61.8133 247.221 61.44C247.381 61.0133 247.567 60.8 247.781 60.8C248.101 60.8 248.261 61.0667 248.261 61.6V61.76C248.261 62.5067 248.074 63.2533 247.701 64C247.327 64.8 246.741 65.3867 245.941 65.76C245.301 66.08 244.661 66.24 244.021 66.24ZM273.541 62.72C271.994 62.72 270.394 62.5067 268.741 62.08C267.141 61.6533 265.647 61.04 264.261 60.24C261.861 58.8533 259.514 57.0933 257.221 54.96C254.927 52.7733 252.874 50.4 251.061 47.84C249.301 45.2267 247.914 42.64 246.901 40.08C246.367 38.6933 245.941 37.4133 245.621 36.24C245.301 35.0133 245.141 33.84 245.141 32.72C245.141 31.1733 245.514 29.68 246.261 28.24C247.061 26.7467 248.367 25.1733 250.181 23.52C251.461 22.4 253.061 21.12 254.981 19.68C256.954 18.24 259.087 16.8 261.381 15.36C263.727 13.92 266.021 12.5867 268.261 11.36C270.554 10.1333 272.661 9.14667 274.581 8.4C276.554 7.65333 278.127 7.28 279.301 7.28H279.541C280.981 7.28 281.701 7.49333 281.701 7.92C281.701 8.24 281.194 8.53333 280.181 8.8C279.167 9.01333 277.674 9.6 275.701 10.56C273.727 11.52 271.541 12.6933 269.141 14.08C266.794 15.4667 264.447 16.96 262.101 18.56C259.807 20.1067 257.781 21.6267 256.021 23.12C254.261 24.6133 253.061 25.92 252.421 27.04C251.994 27.7867 251.647 28.56 251.381 29.36C251.114 30.16 250.981 31.0133 250.981 31.92C250.981 33.68 251.541 35.6 252.661 37.68C254.847 41.5733 257.381 45.2267 260.261 48.64C263.141 52 266.154 54.5333 269.301 56.24C269.941 56.6133 270.901 57.0933 272.181 57.68C273.514 58.2133 274.714 58.48 275.781 58.48C276.421 58.48 276.954 58.32 277.381 58C277.861 57.68 278.127 57.12 278.181 56.32V56C278.181 54.6667 277.754 53.2533 276.901 51.76C276.101 50.2667 275.354 49.0133 274.661 48C274.127 47.0933 273.861 46.4533 273.861 46.08C273.861 45.76 273.994 45.6 274.261 45.6C274.901 45.6 275.674 46.1067 276.581 47.12C277.114 47.6533 277.674 48.32 278.261 49.12C278.847 49.8667 279.354 50.64 279.781 51.44C280.954 53.5733 281.541 55.4133 281.541 56.96C281.541 58.9333 280.741 60.4 279.141 61.36C277.594 62.2667 275.727 62.72 273.541 62.72ZM296.456 63.52C293.843 63.52 291.603 62.9067 289.736 61.68C287.923 60.4533 286.51 58.8267 285.496 56.8C284.536 54.72 284.003 52.48 283.896 50.08V48.48C283.896 45.92 284.163 43.36 284.696 40.8C285.283 38.24 286.163 35.8933 287.336 33.76C288.51 31.6267 290.003 29.92 291.816 28.64C293.63 27.3067 295.79 26.64 298.296 26.64H298.856C300.35 26.6933 301.416 27.2533 302.056 28.32C302.75 29.3867 303.096 30.5333 303.096 31.76V32.08C303.096 34.96 302.43 37.4667 301.096 39.6C299.816 41.68 298.19 43.36 296.216 44.64C294.243 45.92 292.19 46.8 290.056 47.28V47.68C290.056 49.0133 290.163 50.4533 290.376 52C290.59 53.4933 290.99 54.9333 291.576 56.32C292.163 57.7067 292.99 58.8533 294.056 59.76C295.123 60.6133 296.483 61.04 298.136 61.04C300.163 61.04 301.87 60.4 303.256 59.12C304.643 57.84 305.71 56.32 306.456 54.56C306.776 53.8133 307.043 52.9867 307.256 52.08C307.523 51.12 307.763 50.1067 307.976 49.04C308.083 48.4 308.296 48.08 308.616 48.08C309.043 48.08 309.256 48.5333 309.256 49.44C309.256 49.6 309.23 49.7867 309.176 50C309.176 50.16 309.15 50.3733 309.096 50.64C308.776 52.5067 308.323 54.16 307.736 55.6C306.67 58.3733 305.256 60.4 303.496 61.68C301.79 62.9067 299.443 63.52 296.456 63.52ZM290.136 45.52C291.79 45.04 293.23 44.1867 294.456 42.96C295.736 41.68 296.75 40.1867 297.496 38.48C298.243 36.7733 298.643 35.04 298.696 33.28V32.8C298.696 31.8933 298.536 31.0133 298.216 30.16C297.896 29.3067 297.363 28.88 296.616 28.88H296.536C295.576 28.88 294.723 29.36 293.976 30.32C293.283 31.2267 292.696 32.4 292.216 33.84C291.736 35.28 291.336 36.7733 291.016 38.32C290.696 39.8667 290.456 41.28 290.296 42.56C290.19 43.84 290.136 44.7733 290.136 45.36V45.52ZM316.599 62.8C314.785 62.8 313.292 62.24 312.119 61.12C310.999 60 310.119 58.5867 309.479 56.88C308.839 55.12 308.359 53.3333 308.039 51.52C307.772 49.7067 307.612 48.1333 307.559 46.8C307.505 45.8933 307.479 45.0667 307.479 44.32C307.479 43.5733 307.479 42.88 307.479 42.24V42.16C307.479 39.3867 307.559 36.5333 307.719 33.6C307.879 30.6667 308.092 27.84 308.359 25.12C308.625 22.3467 308.919 19.84 309.239 17.6C309.559 15.3067 309.879 13.44 310.199 12C310.519 10.6667 311.025 9.14666 311.719 7.44C312.412 5.73333 313.319 4.26666 314.439 3.04C315.559 1.76 316.892 1.12 318.439 1.12C320.305 1.12 321.585 1.84 322.279 3.28C322.972 4.66667 323.319 6.4 323.319 8.48C323.319 10.24 323.132 12.1333 322.759 14.16C322.439 16.1333 322.012 18.0533 321.479 19.92C320.945 21.7867 320.439 23.44 319.959 24.88C319.532 26.32 319.185 27.36 318.919 28C318.065 30.24 317.079 32.5067 315.959 34.8C314.892 37.0933 313.825 39.1733 312.759 41.04C312.759 41.5733 312.732 42.16 312.679 42.8C312.679 43.3867 312.679 44.0533 312.679 44.8C312.679 46.3467 312.732 48 312.839 49.76C312.945 51.52 313.185 53.1733 313.559 54.72C313.932 56.2133 314.465 57.44 315.159 58.4C315.852 59.36 316.759 59.84 317.879 59.84C318.999 59.84 319.985 59.4133 320.839 58.56C321.905 57.5467 322.705 56.1867 323.239 54.48C323.825 52.7733 324.332 51.04 324.759 49.28C324.919 48.5333 325.185 48.16 325.559 48.16C325.825 48.16 325.959 48.48 325.959 49.12C325.959 49.28 325.932 49.4667 325.879 49.68C325.879 49.8933 325.852 50.1333 325.799 50.4C325.479 52.2133 324.972 54.08 324.279 56C323.639 57.92 322.705 59.5467 321.479 60.88C320.305 62.16 318.679 62.8 316.599 62.8ZM312.919 37.68C314.305 34.8533 315.585 31.8667 316.759 28.72C317.932 25.52 318.865 22.3733 319.559 19.28C320.305 16.1333 320.679 13.28 320.679 10.72C320.679 9.17333 320.545 7.89333 320.279 6.88C320.065 5.86667 319.639 5.36 318.999 5.36C318.359 5.36 317.745 6.05333 317.159 7.44C316.625 8.82666 316.119 10.64 315.639 12.88C315.212 15.12 314.839 17.5467 314.519 20.16C314.199 22.72 313.905 25.2267 313.639 27.68C313.425 30.08 313.239 32.1867 313.079 34C312.972 35.8133 312.919 37.04 312.919 37.68ZM332.676 62.32C330.756 62.32 329.236 61.7067 328.116 60.48C326.996 59.2533 326.169 57.7867 325.636 56.08C325.102 54.32 324.782 52.6933 324.676 51.2C324.569 49.76 324.489 48.24 324.436 46.64C324.382 44.9867 324.356 43.2533 324.356 41.44C324.356 38.1333 324.436 34.72 324.596 31.2C324.809 27.68 325.102 24.2667 325.476 20.96C325.902 17.6 326.409 14.6133 326.996 12C327.316 10.6667 327.822 9.14666 328.516 7.44C329.209 5.73333 330.116 4.26666 331.236 3.04C332.356 1.76 333.689 1.12 335.236 1.12C338.382 1.12 339.956 3.49333 339.956 8.24C339.956 10.1067 339.636 12.8 338.996 16.32C338.409 19.7867 337.316 23.68 335.716 28C334.916 30.24 333.956 32.5067 332.836 34.8C331.769 37.04 330.702 39.0933 329.636 40.96C329.582 41.3867 329.556 41.84 329.556 42.32C329.556 42.7467 329.556 43.1733 329.556 43.6C329.556 45.4133 329.609 47.2533 329.716 49.12C329.876 50.9867 330.116 52.72 330.436 54.32C330.809 55.8667 331.316 57.12 331.956 58.08C332.596 59.04 333.422 59.52 334.436 59.52C335.609 59.52 336.542 59.04 337.236 58.08C337.982 57.0667 338.542 56.1067 338.916 55.2C339.129 54.72 339.316 54.1867 339.476 53.6C339.689 53.0133 339.902 52.4 340.116 51.76C340.329 51.1733 340.622 50.88 340.996 50.88C341.262 50.88 341.396 51.1733 341.396 51.76V51.92C341.396 52.2933 341.316 52.7733 341.156 53.36C341.049 53.9467 340.889 54.5333 340.676 55.12C340.036 57.0933 339.102 58.8 337.876 60.24C336.649 61.6267 334.916 62.32 332.676 62.32ZM329.716 37.52C331.102 34.6933 332.382 31.7067 333.556 28.56C334.729 25.36 335.662 22.2133 336.356 19.12C337.102 16.0267 337.476 13.2267 337.476 10.72C337.476 9.17333 337.342 7.89333 337.076 6.88C336.862 5.86667 336.436 5.36 335.796 5.36C335.209 5.36 334.649 5.97333 334.116 7.2C333.636 8.37333 333.182 9.94666 332.756 11.92C332.329 13.8933 331.929 16.0267 331.556 18.32C331.236 20.56 330.942 22.8 330.676 25.04C330.462 27.2267 330.276 29.1733 330.116 30.88C330.009 32.5333 329.929 33.7333 329.876 34.48C329.876 34.8 329.849 35.2267 329.796 35.76C329.796 36.24 329.769 36.8267 329.716 37.52ZM343.891 91.44C340.958 91.44 338.878 90.6933 337.651 89.2C336.371 87.76 335.731 85.9467 335.731 83.76C335.731 82.1067 336.025 80.3467 336.611 78.48C337.198 76.6133 337.945 74.8 338.851 73.04C340.131 70.64 341.758 68.4267 343.731 66.4C345.758 64.3733 347.838 62.5867 349.971 61.04C352.105 59.44 353.945 58.16 355.491 57.2C355.491 56.5067 355.465 55.3867 355.411 53.84C355.358 52.24 355.278 50.4533 355.171 48.48C355.118 46.4533 355.011 44.5067 354.851 42.64C354.425 44.9867 353.811 47.3067 353.011 49.6C352.265 51.8933 351.358 54.24 350.291 56.64C350.025 57.2267 349.598 57.9733 349.011 58.88C348.425 59.7867 347.758 60.5867 347.011 61.28C346.265 61.92 345.465 62.24 344.611 62.24C343.971 62.24 343.358 61.9733 342.771 61.44C342.238 60.96 341.785 60.1333 341.411 58.96C341.091 57.7333 340.825 56.3467 340.611 54.8C340.451 53.2533 340.318 51.68 340.211 50.08C340.158 48.48 340.131 47.04 340.131 45.76C340.131 45.1733 340.131 44.6667 340.131 44.24C340.185 43.76 340.211 43.36 340.211 43.04C340.265 41.92 340.318 40.5867 340.371 39.04C340.478 37.4933 340.638 35.9467 340.851 34.4C341.065 32.8 341.385 31.44 341.811 30.32C342.611 28.2933 344.185 27.28 346.531 27.28C346.798 27.28 347.038 27.28 347.251 27.28C347.518 27.28 347.758 27.3067 347.971 27.36C348.131 27.4133 348.265 27.4667 348.371 27.52C348.531 27.52 348.611 27.6 348.611 27.76C348.611 27.8667 348.585 27.9467 348.531 28C347.998 29.28 347.545 30.96 347.171 33.04C346.798 35.0667 346.505 37.2533 346.291 39.6C346.078 41.9467 345.971 44.1867 345.971 46.32C345.971 47.3867 345.998 48.4267 346.051 49.44C346.105 50.4 346.185 51.2533 346.291 52C346.451 52.9067 346.665 53.7333 346.931 54.48C347.198 55.2267 347.545 55.6 347.971 55.6C348.291 55.6 348.691 55.28 349.171 54.64C350.238 53.1467 351.118 51.3867 351.811 49.36C352.558 47.28 353.118 45.1467 353.491 42.96C353.918 40.7733 354.185 38.7467 354.291 36.88C354.345 35.7067 354.398 34.48 354.451 33.2C354.505 31.92 354.825 30.7733 355.411 29.76C356.105 28.5333 356.958 27.7867 357.971 27.52C359.038 27.2533 359.945 27.12 360.691 27.12H361.651C362.451 27.12 362.851 27.28 362.851 27.6C362.851 27.7067 362.745 27.8667 362.531 28.08C361.998 28.56 361.571 29.4933 361.251 30.88C360.985 32.2667 360.798 33.92 360.691 35.84C360.585 37.7067 360.531 39.6533 360.531 41.68C360.531 43.9733 360.558 46.1867 360.611 48.32C360.665 50.4 360.691 52.0267 360.691 53.2V54.08C362.238 53.1733 363.571 52.4533 364.691 51.92C365.865 51.3333 366.745 51.04 367.331 51.04C367.438 51.04 367.518 51.0667 367.571 51.12C367.625 51.12 367.678 51.12 367.731 51.12C367.998 51.1733 368.131 51.3867 368.131 51.76C368.131 51.92 368.078 52.1067 367.971 52.32C367.865 52.48 367.705 52.56 367.491 52.56C366.851 52.6133 365.971 52.96 364.851 53.6C363.785 54.1867 362.798 54.88 361.891 55.68C360.985 56.4267 360.531 57.0933 360.531 57.68V58.64C360.531 66.0533 359.758 72.1867 358.211 77.04C356.718 81.8933 354.691 85.4933 352.131 87.84C349.625 90.24 346.878 91.44 343.891 91.44ZM343.011 89.76H343.251C345.118 89.76 346.691 89.1467 347.971 87.92C349.305 86.6933 350.398 85.0667 351.251 83.04C352.158 81.0667 352.878 78.9067 353.411 76.56C353.998 74.2133 354.425 71.8667 354.691 69.52C355.011 67.2267 355.225 65.1467 355.331 63.28C355.438 61.4667 355.518 60.1067 355.571 59.2C354.718 59.68 353.411 60.6667 351.651 62.16C349.891 63.6533 348.051 65.4933 346.131 67.68C344.265 69.92 342.691 72.4533 341.411 75.28C340.718 76.8267 340.185 78.32 339.811 79.76C339.491 81.2533 339.331 82.6133 339.331 83.84C339.331 85.6 339.651 87.0133 340.291 88.08C340.931 89.2 341.838 89.76 343.011 89.76Z" fill="black"/>
</svg>
